<svg xmlns="http://www.w3.org/2000/svg" width="64" height="64" viewBox="0 0 64 64" role="img" aria-label="Tree">
  <defs>
    <linearGradient id="g" x1="0" x2="1" y1="0" y2="1">
      <stop offset="0" stop-color="#166534"/>
      <stop offset="1" stop-color="#22c55e"/>
    </linearGradient>
  </defs>
  <path fill="url(#g)" d="M32 4c-8.6 0-15.6 7-15.6 15.6 0 .7.1 1.5.2 2.2C10.8 23.8 7 29 7 35c0 7.2 5.8 13 13 13h10v10c0 1.1.9 2 2 2s2-.9 2-2V48h10c7.2 0 13-5.8 13-13 0-6-3.8-11.2-9.6-13.2.1-.7.2-1.5.2-2.2C47.6 11 40.6 4 32 4z"/>
  <path fill="#7c3f1d" d="M28.5 42c-.8 0-1.5.7-1.5 1.5V58c0 1.1.9 2 2 2h6c1.1 0 2-.9 2-2V43.5c0-.8-.7-1.5-1.5-1.5h-7z"/>
</svg>

